<svg id="Layer_1" data-name="Layer 1" xmlns="http://www.w3.org/2000/svg" viewBox="0 0 204 158"><defs><style>.cls-1{fill:#dcddde;}.cls-2{fill:#58595b;}</style></defs><title>Planet</title><path class="cls-1" d="M102,8.5A70.5,70.5,0,1,0,172.5,79,70.58,70.58,0,0,0,102,8.5Z"/><path class="cls-2" d="M102,2.25A76.6,76.6,0,0,0,62,13.5,77.37,77.37,0,0,0,55.4,18a76.31,76.31,0,0,0-29.3,49.6A77.53,77.53,0,0,0,25.33,76c0,0.93-.08,2-0.08,3a76.74,76.74,0,0,0,153.23,6.22c0.18-2.28.27-4.31,0.27-6.22A76.84,76.84,0,0,0,102,2.25ZM172.5,79l-0.25.09a70.7,70.7,0,0,1-42.86,64.6A70.29,70.29,0,0,1,31.84,82.4c-0.06-1.22-.09-2.33-0.09-3.4,0-1.56.07-3.2,0.21-5.16A69.81,69.81,0,0,1,63.33,20.39a70.56,70.56,0,0,1,7-4.09A69.36,69.36,0,0,1,102,8.75,70.33,70.33,0,0,1,172.25,79h0.25Z"/><path class="cls-2" d="M198.54,114.72c-3.55-9.53-10.59-20.38-20.35-31.38-1.84-2.07-3.76-4.14-5.72-6.15-1.23-1.26-2.67-2.73-4.27-4.34a233.37,233.37,0,0,0-94.5-58l-3.23-1C67.76,13,65,12.2,62.34,11.49A112.37,112.37,0,0,0,33.88,7.25h0c-13.78,0-23.5,3.94-28.11,11.4C-1.93,31.1,5.33,51.44,25.68,74.44l0.41,0.47,0-.62a77.71,77.71,0,0,1,.76-8.34l0-.11-0.07-.09c-1.72-2.09-3.19-4-4.52-5.81-11.86-16.2-15.88-30-11-37.84,2.34-3.79,8.17-8.32,22.61-8.32a99.31,99.31,0,0,1,21.8,2.73c2.42,0.55,5,1.21,7.6,2l1.18,0.34A231.1,231.1,0,0,1,167.64,81.52c1.51,1.59,2.85,3,4,4.23,1.9,2.08,3.58,4,5.15,5.9,1.82,2.19,3.5,4.35,5,6.41,11.86,16.2,15.88,30,11,37.84-2.34,3.8-8.17,8.32-22.6,8.32a104,104,0,0,1-25.32-3.59l-0.11,0-0.09.06a76.16,76.16,0,0,1-7,4.25l-0.54.29,0.59,0.17c12.14,3.56,23.07,5.37,32.5,5.37,13.78,0,23.5-3.94,28.11-11.4C202.14,133.13,202.22,124.61,198.54,114.72Z"/></svg>